<svg xmlns="http://www.w3.org/2000/svg" xmlns:xlink="http://www.w3.org/1999/xlink" xml:space="preserve" version="1.1"
style="shape-rendering:geometricPrecision;text-rendering:geometricPrecision;image-rendering:optimizeQuality;" viewBox="0 0 293 57.5" x="0px" y="0px" fill-rule="evenodd" clip-rule="evenodd"><defs><style type="text/css">

    .fil0 {fill:black}
    .fil1 {fill:black;fill-rule:nonzero}

  </style>
</defs><g><path class="fil0"
d="M263 16c-2,3 -2,6 0,9 3,2 7,2 9,0 2,-3 2,-6 0,-9 -3,-2 -6,-2 -9,0z"/>
<path class="fil1" d="M293 0l0 46c-97,0 -195,0 -293,0l0 -46c98,0 199,0 293,0zm-32 14c-4,4 -4,9 0,13 3,3 8,4 12,1l6 6c2,2 4,-1 2,-2l-6 -6c3,-4 2,-9 -1,-12 -3,-4 -9,-4 -13,0zm-16 29l0 -40 -242 0 0 40 242 0z"/></g>
<text x="0" y="61" fill="#000000" font-size="5px" font-weight="bold" font-family="'Helvetica Neue', Helvetica, Arial-Unicode, Arial, Sans-serif">Created by OneShoot</text>
<text x="0" y="66" fill="#000000" font-size="5px" font-weight="bold" font-family="'Helvetica Neue', Helvetica, Arial-Unicode, Arial, Sans-serif">from the Noun Project</text>
</svg>
